<svg xmlns="http://www.w3.org/2000/svg" width="24" height="24" viewBox="0 0 24 24"><g transform="translate(7558 1656)"><g transform="translate(-7558 -1656)" fill="#822085" stroke="#b12ab5" stroke-width="2"><circle cx="12" cy="12" r="12" stroke="none"/><circle cx="12" cy="12" r="11" fill="none"/></g><path d="M12.481,8.367a.155.155,0,0,1-.047.008.488.488,0,0,0-.07.011l-.051.013a.82.82,0,0,0-.126.042.075.075,0,0,1-.023.007.288.288,0,0,0-.044.018l-.047.022a1.3,1.3,0,0,0-.31.23,1.234,1.234,0,0,0-.133.16.208.208,0,0,1-.018.028.379.379,0,0,0-.022.033l-.015.027a1.055,1.055,0,0,0-.07.147l-.018.051a.528.528,0,0,0-.019.061.16.16,0,0,1-.007.028s-.01.037-.017.076l-.015.072v3.155c0,2.537,0,3.163.007,3.188s.01.05.014.07a.628.628,0,0,0,.026.1.3.3,0,0,0,.01.036.187.187,0,0,0,.013.036.075.075,0,0,1,.008.022.073.073,0,0,0,.007.022l.029.058c.018.037.043.084.068.125l.056.075a1.2,1.2,0,0,0,.234.234,1.264,1.264,0,0,0,.244.14l.037.016a.712.712,0,0,0,.07.025l.037.01a1.163,1.163,0,0,0,.221.041h.43c.284,0,.389,0,.392.005a.047.047,0,0,1-.007.024.978.978,0,0,0-.037.094q-.008.024-.019.047a.067.067,0,0,0-.007.024.066.066,0,0,1-.007.024.308.308,0,0,0-.014.032l-.012.036a.307.307,0,0,1-.014.032.068.068,0,0,0-.007.025.042.042,0,0,1-.007.021.041.041,0,0,0-.008.018.073.073,0,0,1-.008.024.222.222,0,0,0-.013.032.216.216,0,0,1-.017.047c-.007.016-.014.037-.017.047a.221.221,0,0,1-.013.032.073.073,0,0,0-.008.024.041.041,0,0,1-.008.018.041.041,0,0,0-.007.021.094.094,0,0,1-.007.027.325.325,0,0,1-.019.051.38.38,0,0,1-.017.043.151.151,0,0,0-.01.027.441.441,0,0,1-.027.073.707.707,0,0,0-.027.073.151.151,0,0,1-.01.027.281.281,0,0,0-.029.071.043.043,0,0,1-.008.021.043.043,0,0,0-.007.022.043.043,0,0,1-.007.022.042.042,0,0,0-.008.018.119.119,0,0,1-.011.03.108.108,0,0,0-.011.032.047.047,0,0,1-.008.022.043.043,0,0,0-.007.022.047.047,0,0,1-.007.022.1.1,0,0,0-.011.027.07.07,0,0,1-.013.026c-.007.008-.007.011,0,.022a.071.071,0,0,0,.022.017.191.191,0,0,1,.033.018.184.184,0,0,0,.035.018.012.012,0,0,1,.012.008s.007.007.015.011a.244.244,0,0,1,.051.027l.016.01.03.017.027.015a.955.955,0,0,1,.108.06l.022.012a.064.064,0,0,1,.016.011.056.056,0,0,0,.016.01l.03.016.032.018.027.015.071.042a1.012,1.012,0,0,1,.088.051l.036.021.028.016.032.019.032.019.03.016a.057.057,0,0,1,.016.01.215.215,0,0,0,.032.019l.047.026.031.016a.016.016,0,0,1,.015.011s.007.007.015.011a.215.215,0,0,1,.031.016l.032.019.032.019.025.014.051.03.047.026.035.021a.314.314,0,0,0,.037.022l.029.016.032.019.032.019.032.018c.024.012.066.037.094.053a.2.2,0,0,0,.033.017.012.012,0,0,1,.012.008s.007.007.015.011a.244.244,0,0,1,.051.027l.016.01.03.017.027.015a.955.955,0,0,1,.108.06l.022.012.016.01a.115.115,0,0,0,.056.022.177.177,0,0,0,.076-.032l.028-.016.036-.021A.632.632,0,0,1,14.923,19l.035-.019a.835.835,0,0,1,.079-.047l.032-.019L15.1,18.9l.036-.021a.4.4,0,0,1,.058-.035l.037-.022a.125.125,0,0,1,.029-.016.125.125,0,0,0,.029-.016.314.314,0,0,1,.037-.022l.029-.016.032-.018.027-.015c.031-.021.1-.058.125-.072l.032-.018.032-.019.032-.019.029-.016a.314.314,0,0,0,.037-.022l.026-.016.044-.025.053-.03.027-.016.032-.019.032-.019a.215.215,0,0,1,.031-.016.016.016,0,0,0,.015-.011s.007-.007.015-.011a.811.811,0,0,0,.094-.053.836.836,0,0,1,.085-.047l.022-.014a.057.057,0,0,1,.016-.01l.022-.011.035-.021.041-.024.044-.025.032-.018.031-.019.047-.028.031-.017.032-.018c.051-.03.056-.032.066-.022a.037.037,0,0,0,.013.008l.068.039.062.036.026.016a.314.314,0,0,0,.037.022l.029.016.032.019.032.018.089.051.036.021.031.016a.016.016,0,0,1,.015.011s.007.007.015.011a.215.215,0,0,1,.031.016l.032.019a.227.227,0,0,1,.047.029.022.022,0,0,0,.013.007.108.108,0,0,1,.03.016q.045.03.094.056a.065.065,0,0,1,.016.011.056.056,0,0,0,.016.01.569.569,0,0,1,.082.047.031.031,0,0,0,.012.007l.05.027a.446.446,0,0,0,.05.027.03.03,0,0,1,.013.007.246.246,0,0,0,.036.022l.043.025.03.016a.056.056,0,0,1,.016.01.066.066,0,0,0,.016.011.215.215,0,0,1,.047.028.022.022,0,0,0,.013.007.108.108,0,0,1,.03.016q.047.03.094.056a.065.065,0,0,1,.016.011.056.056,0,0,0,.016.01l.03.016.032.018.025.014c.017.012.129.076.132.076l.027.016a.315.315,0,0,0,.037.022l.029.016.032.019.032.018.036.021.051.028a.077.077,0,0,0,.09,0l.027-.022.028-.016.032-.019.032-.019a.215.215,0,0,1,.031-.016A.016.016,0,0,0,18.614,19s.007-.007.015-.01l.022-.011.108-.062.025-.014.032-.019.041-.015.028-.016.036-.021A.753.753,0,0,1,19,18.783l.047-.028.027-.016.032-.018.051-.028a.1.1,0,0,0,.028-.018.047.047,0,0,1,.015-.01.753.753,0,0,0,.1-.055.12.12,0,0,1,.028-.016.125.125,0,0,0,.029-.016.315.315,0,0,1,.037-.022l.029-.016.032-.018.025-.014c.013-.008.127-.074.136-.077l.025-.014.032-.019.032-.019.029-.016a.314.314,0,0,0,.037-.022l.027-.016.047-.026.051-.03.025-.014.032-.019.04-.013a.215.215,0,0,1,.031-.016.016.016,0,0,0,.015-.011s.007-.007.015-.01l.022-.011.108-.062L20.2,18.1l.033-.018c.026-.012.033-.022.024-.037s-.037-.071-.075-.144c-.075-.148-.094-.18-.133-.257l-.032-.062-.007-.016-.054-.094-.1-.195-.108-.215c-.089-.174-.14-.272-.148-.281s-.005-.011,0-.014.187-.005.43-.007a3.921,3.921,0,0,0,.454-.008l.062-.012a1.11,1.11,0,0,0,.264-.08,1.224,1.224,0,0,0,.166-.087,1.551,1.551,0,0,0,.174-.136,1.377,1.377,0,0,0,.191-.231l.025-.041c.012-.018.05-.094.065-.128L21.45,16a.6.6,0,0,0,.029-.082.191.191,0,0,1,.01-.036.883.883,0,0,0,.031-.147c.007-.053.008-.4.007-3.2,0-3.158,0-3.179-.019-3.24a1.084,1.084,0,0,0-.028-.108.085.085,0,0,0-.011-.027.024.024,0,0,1,0-.015.316.316,0,0,0-.03-.076.083.083,0,0,1-.007-.019,1.451,1.451,0,0,0-.086-.155,1.251,1.251,0,0,0-.317-.323l-.047-.032-.029-.013c-.018-.012-.1-.051-.132-.066l-.04-.018a.072.072,0,0,0-.037,0,.094.094,0,0,1-.025-.007,1.149,1.149,0,0,0-.215-.053c-.053-.008-8.015-.013-8.024,0m7.941,1a.194.194,0,0,1,.108.117c.011.027.011.07.011,3.072s0,3.046-.011,3.072a.209.209,0,0,1-.123.122,3.942,3.942,0,0,1-.665.011h-.645c-.007,0-.022-.028-.053-.088l-.081-.158-.108-.215c-.09-.177-.124-.241-.13-.252l-.006-.017-.059-.116-.1-.195-.05-.094-.01-.019-.032-.064c-.015-.03-.032-.064-.039-.074a.047.047,0,0,1-.008-.028.089.089,0,0,1,.032-.022L18.5,14.4l.032-.018.027-.016.025-.014.147-.083.019-.01.032-.019.032-.019.019-.01a1.1,1.1,0,0,1,.108-.06l.031-.019a.172.172,0,0,1,.033-.019.129.129,0,0,0,.029-.016l.027-.016.066-.037L19.2,14l.025-.014.029-.016a.314.314,0,0,0,.037-.022l.027-.016.108-.059.025-.013.025-.014.136-.077a.336.336,0,0,0,.069-.047c0-.007.007-.161.007-.735V12.26l-.017-.007-.026-.013c-.021-.013-.195-.114-.2-.114l-.026-.015-.051-.031-.047-.027-.031-.017-.027-.016L19.23,12l-.036-.017c-.022-.014-.13-.076-.133-.076a.03.03,0,0,1-.013-.007.694.694,0,0,0-.079-.047l-.027-.016-.032-.019-.032-.019-.029-.016a.313.313,0,0,1-.041-.014l-.027-.016-.065-.035-.066-.037-.027-.019-.036-.022-.027-.016L18.53,11.6l-.032-.019-.029-.016a.313.313,0,0,1-.037-.022.108.108,0,0,0-.031-.016.138.138,0,0,0-.037.019l-.051.03-.037.022-.032.018-.032.019-.028.016-.036.021c-.027.017-.07.042-.094.054l-.032.018-.032.018-.027.015c-.022.014-.055.033-.079.047l-.079.044-.032.018-.032.018-.032.018c-.024.012-.067.037-.094.054L17.58,12l-.028.016-.027.015-.068.039-.068.039-.027.015-.029.016a.313.313,0,0,0-.037.022l-.026.016-.047.027-.051.027a.108.108,0,0,0-.022.016l-.019.016v.722c0,.721,0,.744.016.744a.608.608,0,0,1,.069.037l.071.041.025.014.032.019c.019.01.037.021.059.035l.032.018.032.019.025.014.1.057.094.053.027.016a.314.314,0,0,0,.037.022l.029.016.029.016a.314.314,0,0,1,.037.022l.026.016.094.054.094.054.026.016a.314.314,0,0,0,.037.022l.029.016.032.019.032.019.025.014.077.044c.07.041.079.051.061.066a.022.022,0,0,0-.008.012c0,.005-.008.022-.125.249l-.162.323-.108.205-.058.114-.05.094c-.013.024-.016.03-.029.058l-.019.037-.051.1a1.06,1.06,0,0,1-.051.094H15.706l-.01-.012a.044.044,0,0,1-.01-.024.044.044,0,0,0-.007-.022.041.041,0,0,1-.008-.012.421.421,0,0,0-.03-.082.07.07,0,0,1-.007-.025.042.042,0,0,0-.008-.021.041.041,0,0,1-.008-.019.108.108,0,0,0-.011-.03.122.122,0,0,1-.011-.028.108.108,0,0,0-.007-.025c-.008-.019-.018-.047-.036-.094q-.008-.024-.019-.047a.068.068,0,0,1-.007-.025.042.042,0,0,0-.007-.021.041.041,0,0,1-.008-.018.073.073,0,0,0-.008-.024.222.222,0,0,1-.013-.032.217.217,0,0,0-.017-.047l-.027-.07a.488.488,0,0,0-.022-.053A.056.056,0,0,1,15.415,15a.041.041,0,0,0-.007-.021.042.042,0,0,1-.008-.018.119.119,0,0,0-.011-.03.119.119,0,0,1-.011-.028.044.044,0,0,0-.005-.016.25.25,0,0,1-.013-.031c-.021-.058-.04-.108-.047-.12a.056.056,0,0,1-.007-.022A.041.041,0,0,0,15.3,14.7a.041.041,0,0,1-.008-.018.073.073,0,0,0-.008-.024.221.221,0,0,1-.013-.032.217.217,0,0,0-.017-.047l-.027-.07a.526.526,0,0,0-.021-.051.133.133,0,0,1-.01-.028.043.043,0,0,0-.008-.021.016.016,0,0,1,0-.012.108.108,0,0,0-.011-.031.122.122,0,0,1-.011-.028.108.108,0,0,0-.007-.025c-.008-.019-.018-.047-.036-.094q-.008-.024-.019-.047a.068.068,0,0,1-.007-.025.042.042,0,0,0-.007-.021.042.042,0,0,1-.008-.018.119.119,0,0,0-.011-.03.122.122,0,0,1-.011-.028.108.108,0,0,0-.007-.025c-.008-.019-.018-.047-.036-.094q-.008-.024-.019-.047a.07.07,0,0,1-.007-.025.042.042,0,0,0-.008-.021.041.041,0,0,1-.007-.02.108.108,0,0,0-.011-.03.122.122,0,0,1-.011-.028.108.108,0,0,0-.007-.025c-.008-.019-.018-.047-.036-.094q-.008-.024-.019-.047a.07.07,0,0,1-.007-.025.042.042,0,0,0-.008-.021.04.04,0,0,1-.007-.019.07.07,0,0,0-.007-.024.222.222,0,0,1-.013-.032.217.217,0,0,0-.017-.047c-.007-.016-.014-.037-.017-.047a.222.222,0,0,0-.015-.036.073.073,0,0,1-.008-.024.041.041,0,0,0-.008-.018.041.041,0,0,1-.007-.019.073.073,0,0,0-.007-.025.314.314,0,0,0-.019-.047l-.026-.047a.054.054,0,0,1-.005-.027.526.526,0,0,1,.094-.06l.025-.014.029-.016a.313.313,0,0,0,.037-.022.125.125,0,0,1,.029-.016.122.122,0,0,0,.028-.015l.051-.031.047-.028.028-.016.03-.017.051-.03a.83.83,0,0,0,.074-.043l.036-.021.028-.016.028-.016.036-.021.051-.022.047-.026.032-.018.032-.018.032-.019.043-.025.047-.027.032-.018.03-.017.036-.021a.452.452,0,0,1,.055-.032c.012-.005.094-.051.108-.06l.022-.012.028-.017.015-.01v-1.47l-.022-.011-.059-.028-.043-.025-.027-.016-.032-.019-.032-.019-.029-.016a.313.313,0,0,1-.037-.022l-.027-.016-.062-.036-.061-.036-.026-.016a.313.313,0,0,0-.037-.022l-.029-.016-.032-.019-.032-.019-.029-.016a.313.313,0,0,1-.037-.022l-.026-.016L15.2,10.5l-.094-.054-.026-.015L15.03,10.4l-.051-.033-.028-.016-.03-.018-.036-.021-.022-.012a1.216,1.216,0,0,0-.108-.06l-.027-.016c-.025-.016-.033-.019-.037-.012a.3.3,0,0,1-.047.029l-.062.037-.032.017a.312.312,0,0,0-.037.022l-.026.016-.062.036-.064.036a.032.032,0,0,0-.012.007.505.505,0,0,1-.051.03c-.024.013-.054.03-.066.039l-.026.015-.047.026-.053.03-.025.014-.03.017-.14.081-.025.013-.032.019-.025.015-.084.047-.084.047-.025.014-.032.018-.025.014c-.022.015-.131.076-.136.076s-.007,0-.011.011-.007.257-.007.737v.736l.016.01.028.015.036.021.047.028.047.029.026.015.047.026.051.03.025.014.032.019.032.019.028.016.036.021a.5.5,0,0,0,.053.032l.085.047.08.047.026.015.056.027.043.025.032.018.032.018.032.018.032.019.025.014.051.03.047.026.026.015.047.029.047.028.036.021a.271.271,0,0,1,.05.03c.015.012.016.012.007.022a.08.08,0,0,0-.014.029,1.087,1.087,0,0,1-.047.125.066.066,0,0,0-.007.024.066.066,0,0,1-.007.024,1.081,1.081,0,0,0-.047.125.067.067,0,0,1-.011.024.024.024,0,0,0-.005.014.07.07,0,0,1-.007.024.222.222,0,0,0-.013.032.216.216,0,0,1-.017.047c-.007.016-.014.037-.017.047a.222.222,0,0,1-.013.032.072.072,0,0,0-.007.022.073.073,0,0,1-.008.022.071.071,0,0,0-.008.024.04.04,0,0,1-.007.019.041.041,0,0,0-.008.018.421.421,0,0,1-.03.082.066.066,0,0,0-.007.024.054.054,0,0,1-.007.021c-.005.011-.022.055-.043.108a.322.322,0,0,1-.014.033.068.068,0,0,0-.007.021,1.037,1.037,0,0,1-.047.124.07.07,0,0,0-.007.024.085.085,0,0,1-.007.025.789.789,0,0,0-.03.083.05.05,0,0,1-.011.021.021.021,0,0,0-.005.015.108.108,0,0,1-.011.033.119.119,0,0,0-.011.03.042.042,0,0,1-.008.018.043.043,0,0,0-.007.022.043.043,0,0,1-.007.022.041.041,0,0,0-.008.018.421.421,0,0,1-.03.082.068.068,0,0,0-.007.025.026.026,0,0,1,0,.015.33.33,0,0,0-.022.051l-.028.075c-.007.016-.014.039-.017.047a.108.108,0,0,1-.01.025.108.108,0,0,0-.01.025.2.2,0,0,1-.017.047c-.007.016-.014.037-.017.047A.221.221,0,0,1,14,15a.073.073,0,0,0-.008.024.041.041,0,0,1-.008.018.043.043,0,0,0-.007.022.043.043,0,0,1-.007.022.041.041,0,0,0-.008.018.421.421,0,0,1-.03.082.068.068,0,0,0-.007.025.042.042,0,0,1-.007.021.04.04,0,0,0-.008.018.1.1,0,0,1-.007.025l-.019.05-.019.051a.1.1,0,0,0-.007.025.071.071,0,0,1-.007.022.228.228,0,0,0-.013.032.406.406,0,0,1-.033.09c-.007.016-.015.041-.019.054a.108.108,0,0,1-.013.029.028.028,0,0,0,0,.017.043.043,0,0,1-.007.022.043.043,0,0,0-.008.022.047.047,0,0,1-.007.022.094.094,0,0,0-.011.028.043.043,0,0,1-.008.021h-.565c-.632,0-.592,0-.645-.041a.176.176,0,0,1-.075-.123c-.007-.047-.007-6.04,0-6.085a.2.2,0,0,1,.13-.153c.03-.011.051-.011,3.932-.01h3.885l.036.018m-3.2,7.4a.094.094,0,0,1-.012.026c-.011.018-.075.144-.114.221l-.019.039L17,17.179l-.065.127-.019.037a.64.64,0,0,1-.03.058l-.014.026-.013.025-.007.016a.108.108,0,0,1-.008.016l-.008.016-.075.155-.133.264c-.055.108-.072.136-.072.108a.074.074,0,0,0-.01-.03.071.071,0,0,1-.008-.022.421.421,0,0,0-.03-.076.086.086,0,0,1-.007-.025.071.071,0,0,0-.007-.024.314.314,0,0,0-.019-.047c-.007-.017-.015-.039-.019-.047a.068.068,0,0,1-.007-.025.042.042,0,0,0-.007-.021.042.042,0,0,1-.011-.025.07.07,0,0,0-.007-.025.444.444,0,0,0-.019-.047l-.019-.051-.019-.051-.019-.04a.09.09,0,0,1-.007-.025.042.042,0,0,0-.007-.018.3.3,0,0,1-.019-.047c-.007-.019-.015-.042-.019-.051a.281.281,0,0,1-.025-.064.122.122,0,0,0-.011-.028.122.122,0,0,1-.011-.028.108.108,0,0,0-.007-.025,1.135,1.135,0,0,1-.047-.124.041.041,0,0,0-.008-.018.044.044,0,0,1-.008-.022A.044.044,0,0,0,16.166,17a.041.041,0,0,1-.008-.019.108.108,0,0,0-.011-.03.122.122,0,0,1-.011-.028.108.108,0,0,0-.007-.025l-.01-.047L16.1,16.8a.118.118,0,0,1-.01-.033,2.459,2.459,0,0,1,.565-.012h.564" transform="translate(-7562.876 -1657.812)" fill="#e737ec"/><g transform="translate(-7558 -1656)" fill="none" stroke="#b12ab5" stroke-width="2"><circle cx="12" cy="12" r="12" stroke="none"/><circle cx="12" cy="12" r="11" fill="none"/></g><path d="M30.9,55.8a11.7,11.7,0,0,1,20.556-7.648L34.068,63.812A11.66,11.66,0,0,1,30.9,55.8Z" transform="translate(-7588.899 -1700.104)" opacity="0.1"/></g></svg>