<svg xmlns="http://www.w3.org/2000/svg" width="22.979" height="16.086" viewBox="0 0 22.979 16.086"><defs><style>.a{fill:#5a6671;}</style></defs><path class="a" d="M3.447,38.894a2.3,2.3,0,1,0-2.3-2.3A2.3,2.3,0,0,0,3.447,38.894Zm16.086,0a2.3,2.3,0,1,0-2.3-2.3A2.3,2.3,0,0,0,19.532,38.894Zm1.149,1.149h-2.3a2.291,2.291,0,0,0-1.619.668,5.252,5.252,0,0,1,2.7,3.928h2.37a1.148,1.148,0,0,0,1.149-1.149V42.341A2.3,2.3,0,0,0,20.681,40.043Zm-9.192,0a4.021,4.021,0,1,0-4.021-4.021A4.019,4.019,0,0,0,11.49,40.043Zm2.758,1.149h-.3a5.552,5.552,0,0,1-4.919,0h-.3A4.137,4.137,0,0,0,4.6,45.328v1.034a1.724,1.724,0,0,0,1.723,1.723H16.66a1.724,1.724,0,0,0,1.723-1.723V45.328A4.137,4.137,0,0,0,14.247,41.192Zm-8.032-.481A2.291,2.291,0,0,0,4.6,40.043H2.3a2.3,2.3,0,0,0-2.3,2.3V43.49a1.148,1.148,0,0,0,1.149,1.149H3.515a5.265,5.265,0,0,1,2.7-3.928Z" transform="translate(0 -32)"/></svg>