<svg xmlns="http://www.w3.org/2000/svg" width="20.503" height="20.502" viewBox="0 0 20.503 20.502"><defs><style>.a{fill:#5a6671;}</style></defs><g transform="translate(-23.556 -1000)"><g transform="translate(23.556 1000)"><path class="a" d="M1009.71,5220.71V5211H1000v9.71Zm-3.416-6.753a.539.539,0,1,1,.764.762l-1.171,1.171,1.171,1.169a.54.54,0,0,1-.764.764l-1.169-1.171-1.171,1.171a.539.539,0,0,1-.761-.764l1.169-1.169-1.169-1.171a.538.538,0,0,1,.761-.762l1.171,1.169Z" transform="translate(-1000 -5200.208)"/><path class="a" d="M1009.71,1009.71V1000H1000v9.71Zm-5.126-6.44a.539.539,0,0,1,1.079,0v1.653h1.653a.539.539,0,1,1,0,1.079h-1.653v1.656a.539.539,0,0,1-1.079,0V1006h-1.653a.539.539,0,1,1,0-1.079h1.653Z" transform="translate(-1000 -1000)"/><path class="a" d="M5220.71,5211H5211v9.71h9.71Zm-2.878,2.734a.54.54,0,0,1,0,1.079h-4.387a.54.54,0,0,1,0-1.079Zm0,2.927a.54.54,0,0,1,0,1.079h-4.387a.54.54,0,0,1,0-1.079Z" transform="translate(-5200.208 -5200.208)"/><path class="a" d="M5220.71,1009.71V1000H5211v9.71Zm-2.932-4.787a.539.539,0,1,1,0,1.079h-4.385a.539.539,0,1,1,0-1.079Z" transform="translate(-5200.208 -1000)"/></g></g></svg>