<svg xmlns="http://www.w3.org/2000/svg" width="21.507" height="21.164" viewBox="0 0 21.507 21.164"><defs><style>.a{fill:#5a6671;}</style></defs><g transform="translate(-1.14 -1.17)"><g transform="translate(1.14 1.17)"><path class="a" d="M18.988,9.641H4.8A3.666,3.666,0,0,0,1.14,13.307v5.54a3.833,3.833,0,0,0,7.635,0V17.61a.174.174,0,0,1,.174-.174h5.889a.174.174,0,0,1,.174.174v1.23a3.833,3.833,0,0,0,7.635,0V13.307a3.666,3.666,0,0,0-3.659-3.666ZM5.252,15.819A1.951,1.951,0,1,1,7.2,13.871a1.951,1.951,0,0,1-1.951,1.948Zm14.712-1.425h-.906v.9a.523.523,0,1,1-1.045,0v-.9H17.12a.523.523,0,0,1,0-1.045h.906v-.906a.523.523,0,0,1,1.045,0v.906h.906a.523.523,0,0,1,0,1.045ZM6.158,13.871a.906.906,0,1,1-.906-.906.906.906,0,0,1,.906.906ZM12.43,8.6H11.385V6.94a2.268,2.268,0,0,1,2.265-2.265h1.878a1.22,1.22,0,0,0,1.22-1.22V1.693a.523.523,0,0,1,1.045,0V3.456a2.265,2.265,0,0,1-2.265,2.265H13.636a1.223,1.223,0,0,0-1.22,1.22Z" transform="translate(-1.14 -1.17)"/></g></g></svg>