<svg xmlns="http://www.w3.org/2000/svg" width="20.521" height="20.067" viewBox="0 0 20.521 20.067"><defs><style>.a{fill:#f2f2f2;fill-rule:evenodd;}</style></defs><g transform="translate(-0.963 -0.415)"><g transform="translate(0.963 0.415)"><path class="a" d="M13.083,14.9a.933.933,0,0,0-.938-.93H10.3a.933.933,0,0,0-.938.93V11.185h3.719ZM10.568.685a.932.932,0,0,1,1.313,0l9.187,9.188c.725.725.479,1.313-.551,1.313H1.932C.9,11.185.652,10.6,1.38,9.873Zm-7.711,10.5H9.365v8.371a.922.922,0,0,1-.932.925H3.789a.935.935,0,0,1-.932-.925Zm10.227,0h6.508v8.371a.922.922,0,0,1-.932.925H14.016a.935.935,0,0,1-.932-.925Z" transform="translate(-0.963 -0.415)"/></g></g></svg>