<svg xmlns="http://www.w3.org/2000/svg" xmlns:xlink="http://www.w3.org/1999/xlink" width="72.583" height="52.812" viewBox="0 0 72.583 52.812">
  <defs>
    <filter id="Path_217" x="0" y="0" width="72.583" height="52.812" filterUnits="userSpaceOnUse">
      <feOffset dy="2" input="SourceAlpha"/>
      <feGaussianBlur stdDeviation="2" result="blur"/>
      <feFlood flood-color="#0effa3" flood-opacity="0.6"/>
      <feComposite operator="in" in2="blur"/>
      <feComposite in="SourceGraphic"/>
    </filter>
  </defs>
  <g id="Group_115" data-name="Group 115" transform="translate(-647.205 -1159.097)">
    <g id="Group_118" data-name="Group 118" transform="translate(787.702 -4169.403)">
      <path id="Path_216" data-name="Path 216" d="M-118.462,5340.5a8.047,8.047,0,0,0-8.038,8.038,8.047,8.047,0,0,0,8.038,8.037,8.047,8.047,0,0,0,8.038-8.037A8.047,8.047,0,0,0-118.462,5340.5Zm0,12.365a4.332,4.332,0,0,1-4.328-4.327,4.332,4.332,0,0,1,4.328-4.328,4.332,4.332,0,0,1,4.328,4.328A4.332,4.332,0,0,1-118.462,5352.866Z" transform="translate(1.892 1.892)" fill="#0effa3"/>
      <circle id="Ellipse_62" data-name="Ellipse 62" cx="2.473" cy="2.473" r="2.473" transform="translate(-94.313 5343.011)" fill="#0effa3"/>
      <circle id="Ellipse_63" data-name="Ellipse 63" cx="2.473" cy="2.473" r="2.473" transform="translate(-94.313 5352.903)" fill="#0effa3"/>
      <circle id="Ellipse_64" data-name="Ellipse 64" cx="2.473" cy="2.473" r="2.473" transform="translate(-89.367 5347.957)" fill="#0effa3"/>
      <circle id="Ellipse_65" data-name="Ellipse 65" cx="2.473" cy="2.473" r="2.473" transform="translate(-99.259 5347.957)" fill="#0effa3"/>
      <g transform="matrix(1, 0, 0, 1, -140.5, 5328.5)" filter="url(#Path_217)">
        <path id="Path_217-2" data-name="Path 217" d="M-74.322,5358.054l-6.021-19.907-.528-.366c-.31-.216-7.764-5.28-23.335-5.28s-23.025,5.064-23.335,5.28l-.528.366-6.021,19.907a12.382,12.382,0,0,0,1.289,9.394,11.633,11.633,0,0,0,7.168,5.473,11.711,11.711,0,0,0,11.3-3.014,14.158,14.158,0,0,1,10.124-4.02,14.158,14.158,0,0,1,10.124,4.02,11.6,11.6,0,0,0,8.244,3.405,12.268,12.268,0,0,0,3.059-.392,11.633,11.633,0,0,0,7.168-5.473A12.382,12.382,0,0,0-74.322,5358.054Zm-4.49,7.52a7.952,7.952,0,0,1-4.888,3.754,8.029,8.029,0,0,1-7.761-2.047,17.843,17.843,0,0,0-12.745-5.1,17.843,17.843,0,0,0-12.745,5.1,8.023,8.023,0,0,1-7.761,2.047,7.952,7.952,0,0,1-4.888-3.754,8.629,8.629,0,0,1-.924-6.5l5.613-18.551c1.84-1.036,8.615-4.31,20.7-4.31s18.875,3.277,20.7,4.307l5.6,18.525A8.649,8.649,0,0,1-78.811,5365.573Z" transform="translate(140.5 -5328.5)" fill="#0effa3"/>
      </g>
    </g>
  </g>
</svg>
