<svg xmlns="http://www.w3.org/2000/svg" width="15.375" height="17.571" viewBox="0 0 15.375 17.571"><defs><style>.a{fill:#b9bbd1;}</style></defs><path class="a" d="M10.2,8.346a.9.9,0,1,1-.9-.975A.936.936,0,0,1,10.2,8.346ZM6.1,7.371a.979.979,0,0,0,0,1.95.936.936,0,0,0,.9-.975A.93.93,0,0,0,6.1,7.371ZM15.375,1.81V17.571c-2.213-1.956-1.506-1.309-4.077-3.7l.466,1.625H1.8A1.805,1.805,0,0,1,0,13.688V1.81A1.805,1.805,0,0,1,1.8,0H13.574A1.805,1.805,0,0,1,15.375,1.81Zm-2.5,8.329a11.765,11.765,0,0,0-1.265-5.122,4.345,4.345,0,0,0-2.469-.922l-.123.141A5.847,5.847,0,0,1,11.2,5.35,7.465,7.465,0,0,0,4.639,5.1c-.325.149-.518.255-.518.255A5.927,5.927,0,0,1,6.431,4.2l-.088-.105a4.345,4.345,0,0,0-2.469.922,11.765,11.765,0,0,0-1.265,5.122,3.185,3.185,0,0,0,2.68,1.335s.325-.4.589-.729A2.732,2.732,0,0,1,4.34,9.708c.129.09.342.208.36.22a6.4,6.4,0,0,0,5.482.307,5.027,5.027,0,0,0,1.01-.518A2.772,2.772,0,0,1,9.6,10.762c.264.334.58.712.58.712a3.212,3.212,0,0,0,2.688-1.335Z"/></svg>