<svg xmlns="http://www.w3.org/2000/svg" width="17.07" height="17.07" viewBox="0 0 17.07 17.07"><defs><style>.a{fill:#b9bbd1;}</style></defs><path class="a" d="M15.851,32H1.215A1.225,1.225,0,0,0,0,33.231V47.839A1.225,1.225,0,0,0,1.215,49.07H15.851a1.228,1.228,0,0,0,1.219-1.231V33.231A1.228,1.228,0,0,0,15.851,32ZM5.159,46.631H2.629V38.485H5.163v8.146ZM3.894,37.372a1.467,1.467,0,1,1,1.467-1.467A1.468,1.468,0,0,1,3.894,37.372Zm10.749,9.259h-2.53V42.669c0-.945-.019-2.16-1.315-2.16-1.318,0-1.52,1.029-1.52,2.092v4.031H6.748V38.485H9.175V39.6h.034a2.665,2.665,0,0,1,2.4-1.315c2.56,0,3.037,1.688,3.037,3.883Z" transform="translate(0 -32)"/></svg>