<svg xmlns="http://www.w3.org/2000/svg" width="15.105" height="17.323" viewBox="0 0 15.105 17.323"><defs><style>.a{fill:#b9bbd1;}</style></defs><g transform="translate(0 0.002)"><path class="a" d="M1.578,16.407,1.571,16.4a6.116,6.116,0,0,1-.43-.487,5.915,5.915,0,0,1-.815-1.48v0A5.947,5.947,0,0,1,0,12.457a5.424,5.424,0,0,1,.662-2.5A5.88,5.88,0,0,1,1.946,8.391a5.353,5.353,0,0,1,1.524-.9,5.088,5.088,0,0,1,1.893-.4V9.434A2.52,2.52,0,0,0,2.1,11.655a2.575,2.575,0,0,0,1.047,2.221c.105.068.206.13.307.184q.074.1.158.192a2.4,2.4,0,0,1-.154-.188,2.4,2.4,0,0,0,2.22.059,2.383,2.383,0,0,0,1.3-1.434A3.471,3.471,0,0,0,7.113,11.5V0h2.994a2.5,2.5,0,0,0,.04.726h0a4.119,4.119,0,0,0,.993,2.036,4.828,4.828,0,0,0,.881.744h0c.111.071.223.137.341.2a3.9,3.9,0,0,0,1.882.454V7.112a10.36,10.36,0,0,1-1.831-.248,6.923,6.923,0,0,1-1.784-.734s-.484-.318-.52-.339v6.1a6.168,6.168,0,0,1-.361,1.9A5.539,5.539,0,0,1,6.9,16.823a5.437,5.437,0,0,1-2.268.5H4.568A5.636,5.636,0,0,1,1.578,16.407Zm2.434-1.8a3.172,3.172,0,0,0,.719.364,3.165,3.165,0,0,1-.715-.364,2.261,2.261,0,0,1-.3-.244A2.383,2.383,0,0,0,4.011,14.605Zm2.961,0,0,0Zm0,0a2.4,2.4,0,0,0,.644-.712A2.435,2.435,0,0,1,6.975,14.605Zm-3.264-.249-.018-.018Zm-.036-.036-.009-.01Zm-.034-.035-.019-.02ZM12.347,3.824c-.111-.1-.2-.184-.259-.245C12.147,3.64,12.236,3.726,12.347,3.824Z" transform="translate(0.864)"/><g transform="translate(0 6.368)"><path class="a" d="M187.9,450.4l.054.155C187.947,450.537,187.925,450.483,187.9,450.4Z" transform="translate(-187.575 -443.051)"/><path class="a" d="M183.233,248.02a5.331,5.331,0,0,0-1.524.9,5.844,5.844,0,0,0-1.282,1.571,5.4,5.4,0,0,0-.661,2.5,6.032,6.032,0,0,0,.321,1.972v0a5.966,5.966,0,0,0,.816,1.481,6.1,6.1,0,0,0,.43.488,6.084,6.084,0,0,1-1.3-1.213,5.786,5.786,0,0,1-.813-1.473v-.007a5.867,5.867,0,0,1-.321-1.975,5.421,5.421,0,0,1,.661-2.5,5.844,5.844,0,0,1,1.282-1.571,5.422,5.422,0,0,1,4.283-1.246v.672A5.091,5.091,0,0,0,183.233,248.02Z" transform="translate(-178.899 -246.897)"/></g></g></svg>