<svg xmlns="http://www.w3.org/2000/svg" width="24" height="24" viewBox="0 0 24 24"><rect width="24" height="24" fill="#fff" opacity="0"/><path d="M16.588,3.753v.488A10.692,10.692,0,0,1,5.817,15.011,10.987,10.987,0,0,1,0,13.323a7.231,7.231,0,0,0,.9.038,7.552,7.552,0,0,0,4.691-1.614A3.764,3.764,0,0,1,2.064,9.119a4.6,4.6,0,0,0,.713.075A4.658,4.658,0,0,0,3.79,9.082,3.788,3.788,0,0,1,.751,5.367V5.329a3.705,3.705,0,0,0,1.726.488A3.792,3.792,0,0,1,.788,2.665,3.66,3.66,0,0,1,1.313.751a10.737,10.737,0,0,0,7.768,3.9,3.407,3.407,0,0,1-.113-.863A3.823,3.823,0,0,1,15.574,1.2a7.4,7.4,0,0,0,2.4-.9,3.984,3.984,0,0,1-1.651,2.1A7.214,7.214,0,0,0,18.5,1.8a9.415,9.415,0,0,1-1.914,1.951Z" transform="translate(3.024 4.012)" fill="#b9bbd1"/></svg>