<svg xmlns="http://www.w3.org/2000/svg" width="7.761" height="13.274" viewBox="0 0 7.761 13.274"><defs><style>.a,.c{fill:#0effa3;}.a{stroke-linecap:round;}.b,.c{stroke:none;}</style></defs><g class="a" transform="translate(-1.194 -34.386)"><path class="b" d="M 2.317925691604614 47.55919647216797 C 2.198015689849854 47.55919647216797 2.085295677185059 47.51248550415039 2.000525712966919 47.42768478393555 L 1.424955606460571 46.85211563110352 C 1.249965667724609 46.67711639404297 1.249965667724609 46.39235687255859 1.424945712089539 46.21732711791992 L 6.607465267181396 41.02234649658203 L 1.42486560344696 35.82725524902344 C 1.249975681304932 35.65234756469727 1.249965667724609 35.36758804321289 1.424945712089539 35.19255828857422 L 2.000535726547241 34.61696624755859 C 2.085305690765381 34.53219604492188 2.198015689849854 34.48550796508789 2.31790566444397 34.48550796508789 C 2.437795639038086 34.48550796508789 2.550515651702881 34.53218460083008 2.635305643081665 34.6169548034668 L 8.723135948181152 40.7049674987793 C 8.898116111755371 40.87995529174805 8.898125648498535 41.16471481323242 8.723145484924316 41.33974838256836 L 2.635305643081665 47.42773818969727 C 2.550525665283203 47.51250839233398 2.437805652618408 47.55919647216797 2.317925691604614 47.55919647216797 Z"/><path class="c" d="M 2.317929029464722 47.45919418334961 C 2.407196998596191 47.45919418334961 2.496479034423828 47.42513275146484 2.564595699310303 47.35702514648438 L 8.652425765991211 41.26904678344727 C 8.78864574432373 41.13278579711914 8.78864574432373 40.91190719604492 8.652425765991211 40.77567672729492 L 2.564595699310303 34.68767547607422 C 2.49647068977356 34.61956024169922 2.407188177108765 34.58550262451172 2.317909479141235 34.58550262451172 C 2.228630542755127 34.58550262451172 2.139355659484863 34.61956024169922 2.071245670318604 34.68767547607422 L 1.495665669441223 35.26325607299805 C 1.359445691108704 35.39951705932617 1.359445691108704 35.62039566040039 1.495665669441223 35.75662612915039 L 6.748725891113281 41.02234649658203 L 1.495665669441223 46.28802490234375 C 1.359445691108704 46.42428588867188 1.359445691108704 46.64517593383789 1.495665669441223 46.78140640258789 L 2.071245670318604 47.35698699951172 C 2.139364004135132 47.42512893676758 2.228639364242554 47.45919418334961 2.317929029464722 47.45919418334961 M 2.317925691604614 47.65919494628906 C 2.171305656433105 47.65919494628906 2.033475637435913 47.60208511352539 1.929805636405945 47.49838638305664 L 1.354245662689209 46.92282485961914 C 1.140275716781616 46.70884704589844 1.140265703201294 46.36064529418945 1.354225635528564 46.14662551879883 L 6.466224670410156 41.02234649658203 L 1.35407567024231 35.89787673950195 C 1.140275716781616 35.68406677246094 1.140275716781616 35.33586502075195 1.354225635528564 35.12185668945313 L 1.929825663566589 34.54625701904297 C 2.033485651016235 34.44259643554688 2.171305656433105 34.38550567626953 2.31790566444397 34.38550567626953 C 2.464505672454834 34.38550567626953 2.602335691452026 34.44258499145508 2.706005573272705 34.54624557495117 L 8.793846130371094 40.63425827026367 C 9.007815361022949 40.84823608398438 9.007815361022949 41.19643783569336 8.793865203857422 41.41044616699219 L 2.706015586853027 47.49844741821289 C 2.602335691452026 47.60211563110352 2.464515686035156 47.65919494628906 2.317925691604614 47.65919494628906 Z"/></g></svg>