<svg xmlns="http://www.w3.org/2000/svg" width="21.265" height="21.265" viewBox="0 0 21.265 21.265"><defs><style>.a{fill:none;stroke:#b9bbd1;stroke-linecap:round;stroke-linejoin:round;stroke-width:2px;}</style></defs><circle class="a" cx="3" cy="3" r="3" transform="translate(7.632 7.632)"/><path class="a" d="M17.112,13.259a1.445,1.445,0,0,0,.289,1.594l.053.053a1.752,1.752,0,1,1-2.478,2.478l-.053-.053a1.457,1.457,0,0,0-2.469,1.033v.149a1.751,1.751,0,0,1-3.5,0v-.079a1.445,1.445,0,0,0-.946-1.322,1.445,1.445,0,0,0-1.594.289l-.053.053a1.752,1.752,0,1,1-2.478-2.478l.053-.053A1.457,1.457,0,0,0,2.9,12.454H2.751a1.751,1.751,0,0,1,0-3.5H2.83a1.445,1.445,0,0,0,1.322-.946,1.445,1.445,0,0,0-.289-1.594l-.053-.053A1.752,1.752,0,1,1,6.289,3.881l.053.053a1.445,1.445,0,0,0,1.594.289h.07A1.445,1.445,0,0,0,8.881,2.9V2.751a1.751,1.751,0,0,1,3.5,0V2.83a1.457,1.457,0,0,0,2.469,1.033l.053-.053a1.752,1.752,0,1,1,2.478,2.478l-.053.053a1.445,1.445,0,0,0-.289,1.594v.07a1.445,1.445,0,0,0,1.322.876h.149a1.751,1.751,0,0,1,0,3.5h-.079A1.445,1.445,0,0,0,17.112,13.259Z"/></svg>